<svg id="a190f68e-4b24-4982-beca-05ebc6117960" data-name="Layer 1" xmlns="http://www.w3.org/2000/svg" viewBox="0 0 525.57 525.14"><title>muraslife2</title><rect width="525.57" height="525.14" style="fill:none"/><path d="M184,166.39c-1.23,7.9-2.79,15.7-3.68,23.49-1.56,12.24-2.56,24.26-3.67,36.39a82,82,0,0,0,.11,18.14,2,2,0,0,1-1.56,2.78c-5.67,1.45-6.79,1.12-7.56-4.56a38.68,38.68,0,0,1-.56-6.23c-.11-2.56,0-5,0-7.68a265.68,265.68,0,0,1,3.78-38.62c.45-2.9,1.56-5.9,2.34-8.9a26.59,26.59,0,0,1,.67-3c0-.22-.34-.45-.34-.67a.84.84,0,0,0-.55.22,18.7,18.7,0,0,1-1.56,2.23,189.18,189.18,0,0,0-19.37,37.4c-1.11,2.33-2.78,3.56-4.34,5.34-.11.11-.44.33-.55.22a27.37,27.37,0,0,1-3.23-1.22c-.67,1.44-1.89,2.11-3,1.22a9.22,9.22,0,0,1-2.79-3.9c-.78-3.78-1.44-7.9-2.22-11.9-.34-2.56-.45-5.23-.67-7.79a8.43,8.43,0,0,0-.45-1.34,6.22,6.22,0,0,0-.89,1.22c-1.67,5.9-3.45,11.8-4.78,17.92-1.67,6.12-2.9,12.58-4.34,18.92-.78,3-2.12,4.23-4.57,4.34h-.66c-1.78-1.22-3.34-1.78-5.46-.66-.78.55-2.22-1.56-2.11-3.23a69.86,69.86,0,0,1,.78-9.57,185.91,185.91,0,0,1,19.47-59.66,3.24,3.24,0,0,0,.34-.89c1.11-1.44,1.78-1.55,2.34.11s1.66,1.34,2.11.34c1-2.12,2.67-1.45,3.9-.78,1.55.67,3,1.11,3.33,3.45a349.93,349.93,0,0,1,1.9,37.28,2.25,2.25,0,0,0,.22,1.23,1.27,1.27,0,0,0,.67.66c0,.12.33-.11.33-.44a49.48,49.48,0,0,0,2.45-5.57,212.79,212.79,0,0,1,23-39.95c2.44-3.67,9.12-3.12,11,.67A8.79,8.79,0,0,1,184,166.39Zm-40.63,52.09c0-.56-.11-1-.11-1.78-.78-6.79-1.33-13.91-2.22-21.7V181.86a3.29,3.29,0,0,0-.34-1.11c-.33.33-.78.56-.78,1a25.57,25.57,0,0,0-.66,5.34c.66,9,1.55,18.26,2.44,27.38.12,1.34.45,2.9.67,4.23,0,.22.45.33.67.78C143.19,219,143.41,218.7,143.41,218.48Z" transform="translate(7.42 7.32)" style="fill:#e3051b"/><path d="M249.25,170.29c-.55,2.56-1.33,5.12-2.11,7.57-5.9,15.8-9.24,32.38-12.91,48.85-1.12,5.35-1.34,10.91-2.12,16.36,0,.34-.11,1.23-.44,1.34a18.51,18.51,0,0,1-5.68,1.45c-1.89,0-3-1.67-3.45-3.68a22.39,22.39,0,0,1-.33-6.12c.89-7.68,1.78-15.36,2.67-23.15v-1.78A4.84,4.84,0,0,0,224,213c-.67,3.68-1.45,7.57-2,11.25-.56,3.22-1,6.45-1.67,9.68,0,.33-.45.55-.56,1-.22-.45-.78-.89-.78-1.22.22-5.35.67-10.69,1-16,.11-1.11.34-2.12.45-3.23a2.87,2.87,0,0,0-.56-1.33c-.22.22-.78.55-1,1-3.23,6.45-6.68,12.8-10,19.25a71.6,71.6,0,0,1-5.12,7.79,6,6,0,0,1-5.23,3.34c-.55,0-1,.78-1.56,1s-.89.56-1,.34a34,34,0,0,1-5.78-3.68,2.39,2.39,0,0,0-2.9-.33v-.11c-3.67.22-4,0-5-3.56-1.55-4.68-1.22-9.57-.78-14.25a143.5,143.5,0,0,1,9.13-39.17,73.72,73.72,0,0,1,3.56-7.24c.56-1,1.23-2,2.56-.89a1.56,1.56,0,0,0,1,0c3.9-2.89,6.79.11,10.13,1.56,1.34.78.78,2,.45,3.23-1.56,4.56-3.12,9.12-4.46,13.69a156.58,156.58,0,0,0-6.12,34.28c0,.66-.11,1.11-.11,1.66a5.94,5.94,0,0,0,.67,1.79,15.4,15.4,0,0,0,1.22-1.45c3-6.12,5.9-11.91,8.69-18.14,6.67-15.69,15.91-29.94,24.7-44.3a33.14,33.14,0,0,0,2.78-4.23c1-2.22,2.56-2.67,4.79-2.44,3.78.55,6,3.11,8.46,5.34A4.42,4.42,0,0,1,249.25,170.29Zm-56.76,23.59a2.15,2.15,0,0,0-.33-.89c0,.22-.22.56,0,.89a12.35,12.35,0,0,0,.22,1.89c-.67,1-1.56,1.79-1.78,2.79-2,10.46-4.12,21.14-5.68,31.72-.66,3.78-.66,8.23,2.34,11.46a4.92,4.92,0,0,0,.89-4.68c-.22-1.33-.33-2.78-.44-4.34a115.51,115.51,0,0,1,2-24.81,122,122,0,0,1,2.67-12.25A9.62,9.62,0,0,0,192.49,193.88Zm1.56-6.79v-.44l-.22.22ZM226,206.79a2.41,2.41,0,0,0-.55.45c-.23.22-.23.44-.34.67.34-.12.56-.23.67-.45A.82.82,0,0,0,226,206.79Zm-.78,1.34-.11-.22Zm.89-4.23-.11-.22Zm1.23-2.67c0-.11,0-.22-.11-.22a.11.11,0,0,1,.11.11,3.51,3.51,0,0,1-.56,1.11C227,201.9,227.11,201.56,227.33,201.23Z" transform="translate(7.42 7.32)" style="fill:#e3051b"/><path d="M268.39,222.37c-1.78.67-2-.22-2.22,1.56-.56,3.79-1.45,13.13-1.9,17a19.28,19.28,0,0,0-.77,2c-.78-.66-1.78-1-2-1.78-.33-1.22-.22-2.89-.44-4.34,0-.22-.56-.33-.78-.67-.11.23-.34.45-.34.67.12,1.34.23,2.56.34,4,.11,2.45-.22,2.78-2.78,2.67-6.46-.33-7.79-1.67-7.13-8.35,2-21,4.45-31.27,8.8-46.41a7.94,7.94,0,0,0,.11-1.56,6,6,0,0,0-1.45.34c-1,1-1.89,2.22-2.89,3.23-1.34,2-2.56,2.33-4.9,1.67-1.11-.45-2.12-.78-3.34-1.34-4.12-1.11-5.56-4.67-3.23-8.12a38.83,38.83,0,0,1,7.68-8.24A72,72,0,0,1,286,160.83c7.23-1,14.24.89,20.59,3.89,5.34,2.67,8.45,14.25,5.67,19.37-4.23,7.23-6.68,12.13-13.35,17.14-6.24,4.67-12.58,9.24-19,13.91a7.3,7.3,0,0,0-1.56,1.22,1.68,1.68,0,0,0,0,1.45c1,.67,1.78,1.11,2.67,1.78,7,4.34,13.8,8.68,20.48,13.13a51.32,51.32,0,0,1,4.56,3.45c1.67,1.34,2.11,2.79.89,4.57-.89,1.22-1.34,2.45-.56,3.89.45.78-.22,2-.33,3-.89-.34-2.11-.34-2.89-.89-7.24-4.23-13.14-9.69-20.37-13.91-4-2.23-9-7.57-13.47-8.8-.44-.11-.66-1.22-.89-1.89l-.11-.11Zm-7,6.68c-.11.45-.22,1.11-.33,1.56,0,.22.11.56.11.78a7.52,7.52,0,0,0,.44-1A10.77,10.77,0,0,1,261.38,229.05Zm1.23-22.15c-.23.23-.23.45-.34.56a.48.48,0,0,1,.11.33,1.79,1.79,0,0,1,.45-.77l.44-.45a.67.67,0,0,0,.11-.45c0,.12-.11.34-.11.45C263.05,206.68,262.83,206.68,262.61,206.9Zm1-4.56a2.36,2.36,0,0,1-.11.56h.33C263.83,202.79,263.61,202.67,263.61,202.34Zm.55-1.89c0-.22.11-.22.11-.22h-.11c-.11,0-.11.22-.33.22.22,0,.33-.22.44-.34C264.27,200.23,264.16,200.23,264.16,200.45Zm2.67-8.9a.11.11,0,0,1-.11-.12H267a1.5,1.5,0,0,0,.55-.89.58.58,0,0,1-.22.45c-.11.11-.33.22-.45.33Zm1.9-5.68c0,.11.33.33.44.44.56-.77.89-1.78,1.45-2.56a4.49,4.49,0,0,1,.89-1.33l-.33-.11c0,.11,0,.22.33.22C268.73,182.42,269.39,184.53,268.73,185.87ZM270.4,204a4.63,4.63,0,0,1,1.22-.78c10-5.56,26.82-17,31.27-22.7,3.45-4.34,2.45-7.13-.22-8.57-5.12-2.9-24.48,2-26.49,8.9-1.67,5.68-4.45,15.92-6,22.26C270.17,203.12,270.28,203.56,270.4,204Zm.22,15.8a.37.37,0,0,1,.11.23.11.11,0,0,0,.11-.11A.38.38,0,0,0,270.62,219.81Z" transform="translate(7.42 7.32)" style="fill:#e3051b"/><path d="M360.21,238.85a3.17,3.17,0,0,1-1.45,3.67c-1.56,1-3.23,1.89-4.89,2.78a5.11,5.11,0,0,1-7.13-3.34c-1.22-4.45-2.45-9.24-3.34-13.91-.44-3-.55-6.23-.89-9.24-.22-1.56-.78-2.34-2.45-2.34-3.45,0-6.67-.11-9.9-.33-2.12-.11-3,.56-3.78,2.56-1.56,5.45-3.57,11-5.46,16.69-.33,1.12-.78,2.34-1.11,3.46a3.35,3.35,0,0,1-.78,1.55,3.61,3.61,0,0,1-4.56,1.67c-2.12-.78-.78-2.11-.78-3.34,2.34-6.67,4.56-13.24,6.79-19.81.11-.33.22-.89.33-1.22.56-1.34,0-1.67-1.11-1.56-3.34,0-6.46,0-9.57.11-2.79.11-2.79.22-3.34-2.56-.11-.55-.34-1.22-.45-1.89-.22-2.34.89-3.56,3.12-3.56,4.23-.11,8.46-.22,12.69,0a3.05,3.05,0,0,0,3.56-2.34c2.22-5.12,4.56-10.13,7-15.13,2.11-4.12,4.34-8.24,6.57-12.13a12.91,12.91,0,0,0,2-7.13,41.57,41.57,0,0,1,.56-6.56c.11-1.67,1-2.79,2.78-2.67s3.67-.12,5.34-.23h0v.11c-.11,0-.11,0-.11-.11a8,8,0,0,1-.11,2.34c-1.23,3.56-.89,7.23-.78,10.91,0,.22.11.44.11.78.22-.34.22-.67.33-.78,2-1.9,1.23-4.79,2-6.9a11.42,11.42,0,0,1,.44-2.23,1.51,1.51,0,0,1,2.9,0,13.9,13.9,0,0,1,1,4.23c.11,6.45,0,12.91.22,19.48.11,6.23.45,12.57.78,18.69.11,1.34.33,2.23,1.78,2.9,1,.66,1.56,2.45,1.78,3.78s.78,3-1.56,3.45c-.44.11-.78,1.45-.78,2.23.34,4.11,1,8.12,1.45,12.24C359.65,235.06,360,237,360.21,238.85Zm-46.52-.12c-.67.34-2.23.23-1.45,1.78.11.23-.78.78-.89.78a4.24,4.24,0,0,1-1-.89c1-3.56,2.11-6.9,3.12-10.35.11-.22.44-.33.55-.55v1c-.55,2.22-1,4.56-1.56,6.68C312.35,238.18,312.58,238.85,313.69,238.73ZM342,208V196.78h-.11V185.09c0-.44-.34-.78-.45-1.11a6.92,6.92,0,0,0-1.22.78,9.33,9.33,0,0,1-.45.89c-2.89,7-5.79,13.91-8.57,20.81-.67,1.56,0,2.11,1.34,2.22,2.56.34,5.23.56,7.68,1C341.51,209.91,342,209.35,342,208Zm8.9-31.17-.11.12h.11Z" transform="translate(7.42 7.32)" style="fill:#e3051b"/><path d="M393,182a15.43,15.43,0,0,0,.56-3.78c-5,5.79-9.8,11.46-13.47,18-1.23,2.45-1.11,2.89,1.67,3a43.45,43.45,0,0,1,15,3.23,18,18,0,0,1,9,9.57c2,3.79.78,8.13-1.45,11.69-1.67,2.78-3.89,5.34-5.79,8v0a.41.41,0,0,0-.22.34c0,.22.22.33.22.44a.11.11,0,0,0,.11.11h-.11a86.83,86.83,0,0,1-21.36,11.69c-3.9,1.56-7.91,2.22-11.91.78a12.08,12.08,0,0,1-1.78-1.45c.44-.56.77-1.45,1.44-1.67a6.92,6.92,0,0,1,2.56-.89c1.34-.33,2.12-.89.11-1.78a2.37,2.37,0,0,1,.56-1.22c2.78-1.9,5.79-3.45,8.35-5.35a155.29,155.29,0,0,0,13.8-11.24c2.45-2.22,3.78-5.45,5.34-8.34a3.05,3.05,0,0,0,.67-2.23c-.11-.67-.89-1.22-1.23-2.11-.55.55-1.44,1-1.55,1.55-1.45,5.12-4.9,9.13-8.8,12.47-3.11,2.56-6.45,5-9.9,7.46-.56.33-1.12.44-1.67.77a11.15,11.15,0,0,1,1.33-1.78,43.49,43.49,0,0,0,5-4A76.92,76.92,0,0,0,388,216.7c1.67-1.67,2.67-4.12,3.56-6.35,1-2.67.56-3.22-2.22-3.33s-5.46.22-8.13.44c-3.67.11-7.23.45-10.68.33-3.9-.11-6.12-3.11-4.68-6.67a113,113,0,0,1,6.68-13.8,102,102,0,0,1,16.81-21c3.56-3.34,7.12-5.23,11.9-3a65.2,65.2,0,0,1,6.9,3.22,3.91,3.91,0,0,1,1.9,4.79c-2.45,6.9-5.23,13.91-9.8,19.81-2,2.78-7.79,2.45-9.35-.45a2.85,2.85,0,0,1-.44-3.45C391.48,185.42,392.26,183.64,393,182Zm-20.48,56.65c-.44-.11-.56-.33-.67-.33A16,16,0,0,1,370,239.4a.78.78,0,0,0,.56.34A15.54,15.54,0,0,1,372.56,238.62Zm3-1.11v-.33h-.34C375.34,237.18,375.34,237.51,375.57,237.51Zm4.34-33.95,1.33.34c.56-.11,1.23-.22,1.67-.34a2.1,2.1,0,0,0-1.22-.55A6.41,6.41,0,0,0,379.91,203.56Zm5.67,0a7.08,7.08,0,0,0,1.45.23c.44,0,.67-.23,1-.23-.33-.11-.56-.22-1-.33C386.58,203.34,386.14,203.45,385.58,203.56Zm8-25.37a.11.11,0,0,1,.11.11v-.22A.11.11,0,0,1,393.6,178.19Zm5,54.31v-.78c.45,0,.89.11,1.23.11A4.17,4.17,0,0,1,398.6,232.5Zm1.45-.67h-.22c.11,0,.11,0,.11-.11Zm.78-.66a4.89,4.89,0,0,1-.78.66l-.11-.11a5.58,5.58,0,0,0,.89-.67Zm.89-.89a6.11,6.11,0,0,0-.89.89v-.12a1.71,1.71,0,0,1,.78-.77Zm.56-1a4.25,4.25,0,0,0-.56,1h-.11a10.67,10.67,0,0,1,.55-1.12Zm1-.55c-.34.22-.67.33-1,.55l-.12-.11a1.84,1.84,0,0,0,1-.55v0a2.89,2.89,0,0,0,.78-.78v.11A5.08,5.08,0,0,1,403.28,228.72Zm1.67-1.45a4.6,4.6,0,0,0-1,.67v-.11c.22-.23.66-.45.89-.67Zm0,0-.11-.11a5,5,0,0,0,1.22-.33C405.73,226.94,405.28,227.16,405,227.27Zm2.45-3c-.45.89-.89,1.78-1.34,2.56C405.84,225.49,405.61,224.38,407.4,224.27Zm.11,0h-.11v-.12Z" transform="translate(7.42 7.32)" style="fill:#e3051b"/><path d="M206.56,331.55c.23,2-1.78,1.78-2.78,2.34-9.9,4.23-18.81,10-27.27,15.91a19.48,19.48,0,0,1-3.89,2.67,8.73,8.73,0,0,1-2.45,0,6.18,6.18,0,0,0,.22-2c.11-.33.11-.78.22-1.22a8.59,8.59,0,0,0-1.66.22,8.1,8.1,0,0,0-2.12,1.78c-1.67,1.33-3,1.45-4.67.33s-1.78-2.22-.45-4.34a4.56,4.56,0,0,0,1.11-2.78c-1.33-8,.23-15.69,1.12-23.59a467.84,467.84,0,0,1,9.57-54.76c1.67-6,3-6.68,9.9-4.45,4.79,1.78,6,3.45,5.35,8.12-1.34,7.68-3.12,15.25-4.46,22.93-2.44,13.58-4.78,27-7.34,40.62,0,.45-.22.89-.22,1.23-.23,2.44.11,2.89,2.67,2,3.89-1.45,7.79-3,11.79-4.56,1-.45,2.34-.9,3.57-1.45.66-.11,1.11.22,1.78.44a13.92,13.92,0,0,0-1.67,1.12H195c-3.23,2-6.46,3.67-9.8,5.67-2.78,1.89-5.67,3.79-8.34,5.57-.34.11-.23.78-.34,1.11a3.19,3.19,0,0,0,1.12-.11c4.11-2.34,8-4.79,12.13-6.9s8.46-3.9,12.69-5.57C203.56,331.33,205.23,331.55,206.56,331.55Z" transform="translate(7.42 7.32)" style="fill:#e3051b"/><path d="M241,270.34c-3,.33-5.79,1-8.9,1.11-4.45.11-6.46,1.89-7,6.68-1.9,13.24-4.68,26.26-6.68,39.4-.89,5.45-1.34,11.24-1.89,16.69-.23,1.45.11,2.56,2.11,2.67a15.92,15.92,0,0,1,4.45.89,7.52,7.52,0,0,1,3.56,2.23c.78.89,1,2.22,1.67,3.34a8.1,8.1,0,0,1-3.11.78,70.56,70.56,0,0,0-18.92,1.22,3.19,3.19,0,0,1-.89.11c-1.12-2.22-3.12-2-4.68-2.67a6.18,6.18,0,0,1-2.22-3.56,2.46,2.46,0,0,1,2.33-2.89,17.23,17.23,0,0,1,4.9-.89c1.45-.12,2.23-.67,2.12-2.23s.22-3.12.33-4.67c.44-6.9,1-14,1.56-21,.33-5,1.33-9.57,2-14.58.45-4.78,1.34-9.79,2.11-14.58.12-.55.12-.89.23-1.44,0-1.23-.23-1.79-1.78-1.67a25.75,25.75,0,0,1-4.12,0c-1.11-.12-2.45-.34-1.89-2.12.11-.11-.45-.67-.67-.67-2.34-.33-3.45-2.11-4-4.23-.33-2.22.56-3.33,3.12-4.34,8-2.89,17.14-3.45,25.82-3.78a23.66,23.66,0,0,0,2.56.11c1.45.11,2.67.22,4,.22-1.34.11-2.45.23-3.68.34a1.16,1.16,0,0,0-.78.44c.23.11.34.23.56.23a7.62,7.62,0,0,0,1.56.22c3.34-.34,5.67,1.44,7.79,4.34C244,268.22,243.4,270,241,270.34Z" transform="translate(7.42 7.32)" style="fill:#e3051b"/><path d="M303.5,261.32a8.36,8.36,0,0,1-1,1.12c-.22.11-.44,0-.66.11a10.82,10.82,0,0,0-2.45.33c0,1.11-.23-.78.11.22.11.78.89,1.23,1.11,1.9.22.89.11,1.67-1.11,1.78-11.24,1.33-24.6,2.56-35.62,4-3.33.34-3.33.34-4.11,3.79-.78,3-1.12,9.12-1.9,12.13-.44,1.33,0,1.78,1.56,1.78,5-.33,12.36-.33,17.14-.67a8.45,8.45,0,0,1,1.67,0c.22,0,.45.34.67.45-.33.11-.56.33-.89.33-3.78.45-10,.56-13.8.89-2,.11-3.9.56-5.9.78a3.1,3.1,0,0,0-1,.78c.44.11.78.33,1.11.22,5.34-.33,13.36-.67,18.81-1.11,4.23-.67,7,2.22,6.46,6.45a1.8,1.8,0,0,1-1,1.23c-1.67.22-3.11.44-4.78.55-6.57.78-15.36,1.34-21.93,1.9-1.56.33-2.56.89-3,2.56-2.78,11.35-3.45,23-6.23,34.5a20.81,20.81,0,0,0-.23,5.34c0,1.78-.89,2.45-2.33,1.56-1.12-.89-1.67-.78-2.45-.11-3.79,1.67-6.9.11-7.68-3.9a21.12,21.12,0,0,1-.22-6c1.11-9.24,2.56-18.36,3.89-27.6.11-1.78.67-2.89-1.89-3-1.78-.12-3.9-3.68-3.56-5.35a3.11,3.11,0,0,1,1.44-2.11,4.63,4.63,0,0,1,2.45-.56c3.56-.11,5.23-2,6.12-5.34s1.9-9.57,3-12.8a9.51,9.51,0,0,0,.78-2,18.13,18.13,0,0,0-2.45,0c-1.45.33-2.78,1-4.23,1.33-.56.12-1.22-.33-2-.44a5.51,5.51,0,0,1,1.22-1.78c1.67-1.67,3.9-2.23,6.12-2.78a3.4,3.4,0,0,0,1.45-1.12c-.89.23-1.67,0-2.34.34-2.78,1.44-4.45,4.23-6.12,1.55-.22-.44-1.67-.22-2.67-.22a3.83,3.83,0,0,0-1.22-.11c.11-.67.11-1.22.44-1.33,2.67-1.56,4.56-4.12,7.9-4.79,13.25-2.45,26.49-4.79,40.07-5.57,2.22-.11,4.23-.44,6.45-.44,4.68,0,9.13.22,13.47.33A2.42,2.42,0,0,1,303.5,261.32Zm-61,78.8c0-.11-.11-.22-.34-.56,0,.56-.11,1.12-.11,1.45s.11.22.22.33A4.38,4.38,0,0,0,242.51,340.12Zm-.34-4.45a3.05,3.05,0,0,0,0,1c.11,0,.34,0,.34-.11v-1.67A2.71,2.71,0,0,0,242.17,335.67Zm.89-4.9v-.33l-.11.33Zm4.23-60.1-.11-.11a2.23,2.23,0,0,0-.78.11Z" transform="translate(7.42 7.32)" style="fill:#e3051b"/><path d="M347.12,270.56a4.05,4.05,0,0,1-1.45,2.56c-.55.45-1-.11-1.44-.89-1.12-2-3-1.67-4.68-1.33-6.12,1.22-12.35,2.56-18.47,3.78-3.45.67-4.9,2.78-6.12,6-1.78,4.9-4.12,9.68-6.24,14.47-.22.67-.22,1.22-.44,1.89a13.63,13.63,0,0,0,2.11.11c4.9-.89,9.46-1.67,14.36-2.67,5.12-.89,6.46,0,8.57,4.9.45,1.67.45,2.33-1.45,2.78-4.11,1-8.23,2-12.46,3.34-4.9,1.22-9.57,3-14.36,4.34a5.55,5.55,0,0,0-3.89,4.34c-1.56,5.45-3,10.91-4.68,16.25a18.71,18.71,0,0,0-.33,2c0,1.11.56,1.67,1.45,1.11,2.56-1.22,4.89-2.45,7.12-3.67a85.67,85.67,0,0,1,22.48-7.79c1.45-.33,3-.56,4.34.67a10.18,10.18,0,0,0,1.22,1.78,13.81,13.81,0,0,1-1.67,1.11c-5.11,1.56-10.23,3.12-15.46,4.45a2.36,2.36,0,0,0-2,2c3.12-.89,6.12-2.12,9.35-3s6.23-1.67,9.24-2.34a15.08,15.08,0,0,1,2.22-.11c.34.11.78.45.78.67a2.87,2.87,0,0,1-.55,1.45,4.8,4.8,0,0,1-1.34.44c-10.79,2.9-20.81,7.46-30.72,12.13-2.33,1.12-4.78,2-7.34,3.23a4.56,4.56,0,0,1-5.79-1.67c-.22-.11-.22-.55-.33-.67-4.23-1.78-3.9-5.23-3-9q1.68-5.85,3-11.69c.11-.55-.23-1.11-.23-1.67l.23.23-.23-.23h.23c.78-2.33,1.56-4.56,2.45-6.78.11-.67,0-.45-.89-1.79a2.69,2.69,0,0,1,0-2.11c2.78-7.68,5.56-15.25,8.34-22.93.45-1.22,1.23-2.78,1.78-3.89.78-1.67,1.45-3.23-.33-4.56a3.37,3.37,0,0,1-.33-2.23,5.74,5.74,0,0,1,.66-2.11,16,16,0,0,1-2.33,1.33,10.77,10.77,0,0,1-2,.67c.23-1-.11-2.12.34-2.67a11.43,11.43,0,0,1,3.45-2.45,116.67,116.67,0,0,1,13.57-5.12c6.13-1.67,12.69-2.56,18.92-4.34,7.13-1.89,11.36,2.78,13.36,7.23C346.34,269,347.12,269.89,347.12,270.56ZM292,309h-.11v.11Zm4,29.38c.11,0,.11.11.22.11a.38.38,0,0,1,.22-.11c-.11,0-.11-.22-.22-.22S296.15,338.12,296,338.34Zm2.11-1.45.11.11v-.11Zm2.9-1a10.51,10.51,0,0,1-2.45.89l2.45-.33Zm3.22-.67a2.52,2.52,0,0,0,1,.11,15,15,0,0,1,8.35-3.22c-3.34-.67-6,.44-8.23,3.22A3.19,3.19,0,0,1,304.27,335.22ZM329,270.34c-4.12-.45-7.46,1.22-11.13,2.45-.22,0-.44.44-.44.55a1.21,1.21,0,0,0,.77.34C321.63,272.56,325.2,271.45,329,270.34Zm9.91-2a2.68,2.68,0,0,0-.78-.23c-2.79.67-5.57,1.45-8.24,2.12,2.67-.34,5.45-.67,8.12-1.12A2.81,2.81,0,0,0,338.89,268.34Z" transform="translate(7.42 7.32)" style="fill:#e3051b"/></svg>